<mxfile host="drawio-plugin" modified="2021-11-22T14:20:19.718Z" agent="5.0 (Macintosh; Intel Mac OS X 11_6_1) AppleWebKit/537.36 (KHTML, like Gecko) Chrome/89.0.4389.114 Safari/537.36" etag="aNvOk4GzTeOr06Sh50EO" version="14.7.4" type="embed" pages="3"><diagram id="ohvM7g6FIDX-RYsrdeIf" name="Streams"><mxGraphModel dx="977" dy="592" grid="1" gridSize="10" guides="1" tooltips="1" connect="1" arrows="1" fold="1" page="1" pageScale="1" pageWidth="1169" pageHeight="827" math="0" shadow="0"><root><mxCell id="0"/><mxCell id="1" parent="0"/><mxCell id="37" value="&lt;pre style=&quot;background-color: #2b2b2b ; color: #a9b7c6 ; font-family: &amp;#34;jetbrains mono&amp;#34; , monospace ; font-size: 9.8pt&quot;&gt;&lt;span style=&quot;color: #6a8759&quot;&gt;room:&amp;lt;&lt;/span&gt;roomId&amp;gt;&lt;span style=&quot;color: #6a8759&quot;&gt;:publishers HSET&lt;/span&gt;&lt;/pre&gt;" style="shape=table;html=1;whiteSpace=wrap;startSize=30;container=1;collapsible=0;childLayout=tableLayout;fontStyle=1;align=center;" parent="1" vertex="1"><mxGeometry x="590" y="110" width="760" height="154" as="geometry"/></mxCell><mxCell id="38" value="" style="shape=partialRectangle;html=1;whiteSpace=wrap;collapsible=0;dropTarget=0;pointerEvents=0;fillColor=none;top=0;left=0;bottom=0;right=0;points=[[0,0.5],[1,0.5]];portConstraint=eastwest;" parent="37" vertex="1"><mxGeometry y="30" width="760" height="36" as="geometry"/></mxCell><mxCell id="39" value="&lt;span style=&quot;font-weight: 700&quot;&gt;id&lt;/span&gt;" style="shape=partialRectangle;html=1;whiteSpace=wrap;connectable=0;fillColor=none;top=0;left=0;bottom=0;right=0;overflow=hidden;" parent="38" vertex="1"><mxGeometry width="380" height="36" as="geometry"/></mxCell><mxCell id="40" value="publisherStreak" style="shape=partialRectangle;html=1;whiteSpace=wrap;connectable=0;fillColor=none;top=0;left=0;bottom=0;right=0;overflow=hidden;" parent="38" vertex="1"><mxGeometry x="380" width="380" height="36" as="geometry"/></mxCell><mxCell id="41" value="" style="shape=partialRectangle;html=1;whiteSpace=wrap;collapsible=0;dropTarget=0;pointerEvents=0;fillColor=none;top=0;left=0;bottom=0;right=0;points=[[0,0.5],[1,0.5]];portConstraint=eastwest;" parent="37" vertex="1"><mxGeometry y="66" width="760" height="44" as="geometry"/></mxCell><mxCell id="42" value="100#111111#0_0_1#xxx" style="shape=partialRectangle;html=1;whiteSpace=wrap;connectable=0;fillColor=none;top=0;left=0;bottom=0;right=0;overflow=hidden;" parent="41" vertex="1"><mxGeometry width="380" height="44" as="geometry"/></mxCell><mxCell id="43" value="{&quot;inputIndex&quot;:0,&quot;inputType&quot;:0,&quot;mediaType&quot;:1,&quot;userId&quot;:111111,&quot;groupId&quot;:&quot;aaa-bbb-ccc&quot;,&quot;msId&quot;:&quot;xxx&quot;,&quot;roomId&quot;:100,&quot;regionId&quot;:2,&quot;muted&quot;:false,&quot;id&quot;:&quot;100#111111#0_0_1#xxx&quot;}" style="shape=partialRectangle;html=1;whiteSpace=wrap;connectable=0;fillColor=none;top=0;left=0;bottom=0;right=0;overflow=hidden;" parent="41" vertex="1"><mxGeometry x="380" width="380" height="44" as="geometry"/></mxCell><mxCell id="61" style="shape=partialRectangle;html=1;whiteSpace=wrap;collapsible=0;dropTarget=0;pointerEvents=0;fillColor=none;top=0;left=0;bottom=0;right=0;points=[[0,0.5],[1,0.5]];portConstraint=eastwest;" parent="37" vertex="1"><mxGeometry y="110" width="760" height="44" as="geometry"/></mxCell><mxCell id="62" value="&lt;span&gt;100#222#0_0_2#xxx&lt;/span&gt;" style="shape=partialRectangle;html=1;whiteSpace=wrap;connectable=0;fillColor=none;top=0;left=0;bottom=0;right=0;overflow=hidden;" parent="61" vertex="1"><mxGeometry width="380" height="44" as="geometry"/></mxCell><mxCell id="63" value="&lt;span style=&quot;color: rgb(240 , 240 , 240) ; font-family: &amp;#34;helvetica&amp;#34; ; font-size: 12px ; font-style: normal ; font-weight: 400 ; letter-spacing: normal ; text-align: center ; text-indent: 0px ; text-transform: none ; word-spacing: 0px ; background-color: rgb(42 , 42 , 42) ; display: inline ; float: none&quot;&gt;{&quot;inputIndex&quot;:0,&quot;inputType&quot;:0,&quot;mediaType&quot;:1,&quot;userId&quot;:2222,&quot;groupId&quot;:&quot;aaa-bbb-ccc&quot;,&quot;msId&quot;:&quot;xxx&quot;,&quot;roomId&quot;:100,&quot;regionId&quot;:2,&quot;muted&quot;:false,&quot;id&quot;:&quot;100#111111#0_0_1#xxx&quot;}&lt;/span&gt;" style="shape=partialRectangle;html=1;whiteSpace=wrap;connectable=0;fillColor=none;top=0;left=0;bottom=0;right=0;overflow=hidden;" parent="61" vertex="1"><mxGeometry x="380" width="380" height="44" as="geometry"/></mxCell><mxCell id="50" value="&lt;pre style=&quot;background-color: #2b2b2b ; color: #a9b7c6 ; font-family: &amp;#34;jetbrains mono&amp;#34; , monospace ; font-size: 9.8pt&quot;&gt;&lt;span style=&quot;color: #6a8759&quot;&gt;mediaServer:&amp;lt;&lt;/span&gt;msId&amp;gt;&lt;span style=&quot;color: #6a8759&quot;&gt;:streams Set&lt;/span&gt;&lt;/pre&gt;" style="shape=table;html=1;whiteSpace=wrap;startSize=30;container=1;collapsible=0;childLayout=tableLayout;fontStyle=1;align=center;" parent="1" vertex="1"><mxGeometry x="10" y="190" width="380" height="154" as="geometry"/></mxCell><mxCell id="51" value="" style="shape=partialRectangle;html=1;whiteSpace=wrap;collapsible=0;dropTarget=0;pointerEvents=0;fillColor=none;top=0;left=0;bottom=0;right=0;points=[[0,0.5],[1,0.5]];portConstraint=eastwest;" parent="50" vertex="1"><mxGeometry y="30" width="380" height="36" as="geometry"/></mxCell><mxCell id="52" value="&lt;span style=&quot;font-weight: 700&quot;&gt;id&lt;/span&gt;" style="shape=partialRectangle;html=1;whiteSpace=wrap;connectable=0;fillColor=none;top=0;left=0;bottom=0;right=0;overflow=hidden;" parent="51" vertex="1"><mxGeometry width="380" height="36" as="geometry"/></mxCell><mxCell id="54" value="" style="shape=partialRectangle;html=1;whiteSpace=wrap;collapsible=0;dropTarget=0;pointerEvents=0;fillColor=none;top=0;left=0;bottom=0;right=0;points=[[0,0.5],[1,0.5]];portConstraint=eastwest;" parent="50" vertex="1"><mxGeometry y="66" width="380" height="44" as="geometry"/></mxCell><mxCell id="55" value="100#111111#0_0_1#xxx" style="shape=partialRectangle;html=1;whiteSpace=wrap;connectable=0;fillColor=none;top=0;left=0;bottom=0;right=0;overflow=hidden;" parent="54" vertex="1"><mxGeometry width="380" height="44" as="geometry"/></mxCell><mxCell id="59" style="shape=partialRectangle;html=1;whiteSpace=wrap;collapsible=0;dropTarget=0;pointerEvents=0;fillColor=none;top=0;left=0;bottom=0;right=0;points=[[0,0.5],[1,0.5]];portConstraint=eastwest;" parent="50" vertex="1"><mxGeometry y="110" width="380" height="44" as="geometry"/></mxCell><mxCell id="60" value="&lt;span&gt;100#22222#0_0_2#xxx&lt;/span&gt;" style="shape=partialRectangle;html=1;whiteSpace=wrap;connectable=0;fillColor=none;top=0;left=0;bottom=0;right=0;overflow=hidden;" parent="59" vertex="1"><mxGeometry width="380" height="44" as="geometry"/></mxCell><mxCell id="58" value="" style="curved=1;endArrow=classic;html=1;entryX=0;entryY=0.5;entryDx=0;entryDy=0;exitX=1;exitY=0.5;exitDx=0;exitDy=0;" parent="1" source="54" target="41" edge="1"><mxGeometry width="50" height="50" relative="1" as="geometry"><mxPoint x="400" y="280" as="sourcePoint"/><mxPoint x="450" y="230" as="targetPoint"/><Array as="points"><mxPoint x="450" y="280"/><mxPoint x="400" y="230"/></Array></mxGeometry></mxCell><mxCell id="64" value="" style="curved=1;endArrow=classic;html=1;entryX=0;entryY=0.5;entryDx=0;entryDy=0;exitX=1;exitY=0.5;exitDx=0;exitDy=0;" parent="1" edge="1"><mxGeometry width="50" height="50" relative="1" as="geometry"><mxPoint x="390" y="330" as="sourcePoint"/><mxPoint x="590" y="250" as="targetPoint"/><Array as="points"><mxPoint x="450" y="332"/><mxPoint x="400" y="282"/></Array></mxGeometry></mxCell><mxCell id="66" value="index by mediaServer" style="text;html=1;strokeColor=none;fillColor=none;align=center;verticalAlign=middle;whiteSpace=wrap;rounded=0;" parent="1" vertex="1"><mxGeometry x="60" y="150" width="180" height="20" as="geometry"/></mxCell><mxCell id="67" value="publishers list per room" style="text;html=1;strokeColor=none;fillColor=none;align=center;verticalAlign=middle;whiteSpace=wrap;rounded=0;" parent="1" vertex="1"><mxGeometry x="740" y="70" width="180" height="20" as="geometry"/></mxCell></root></mxGraphModel></diagram><diagram id="hyLEe2QG27ss1hwh38Um" name="MediaServers"><mxGraphModel dx="977" dy="592" grid="1" gridSize="10" guides="1" tooltips="1" connect="1" arrows="1" fold="1" page="1" pageScale="1" pageWidth="850" pageHeight="1100" math="0" shadow="0"><root><mxCell id="OZrMvUlbWI0xYcgt6ruv-0"/><mxCell id="OZrMvUlbWI0xYcgt6ruv-1" parent="OZrMvUlbWI0xYcgt6ruv-0"/><mxCell id="h3QrRIOz_KXE2ldxw_Rr-0" value="&lt;span style=&quot;font-weight: 400&quot;&gt;availableMediaServers:&amp;lt;regionId&amp;gt;&amp;nbsp; (SortedSet)&lt;/span&gt;" style="shape=table;html=1;whiteSpace=wrap;startSize=30;container=1;collapsible=0;childLayout=tableLayout;fontStyle=1;align=center;" parent="OZrMvUlbWI0xYcgt6ruv-1" vertex="1"><mxGeometry x="380" y="140" width="360" height="117" as="geometry"/></mxCell><mxCell id="h3QrRIOz_KXE2ldxw_Rr-1" value="" style="shape=partialRectangle;html=1;whiteSpace=wrap;collapsible=0;dropTarget=0;pointerEvents=0;fillColor=none;top=0;left=0;bottom=0;right=0;points=[[0,0.5],[1,0.5]];portConstraint=eastwest;" parent="h3QrRIOz_KXE2ldxw_Rr-0" vertex="1"><mxGeometry y="30" width="360" height="27" as="geometry"/></mxCell><mxCell id="h3QrRIOz_KXE2ldxw_Rr-2" value="&lt;span style=&quot;font-weight: 700&quot;&gt;MediaServerId&lt;/span&gt;" style="shape=partialRectangle;html=1;whiteSpace=wrap;connectable=0;fillColor=none;top=0;left=0;bottom=0;right=0;overflow=hidden;" parent="h3QrRIOz_KXE2ldxw_Rr-1" vertex="1"><mxGeometry width="180" height="27" as="geometry"/></mxCell><mxCell id="h3QrRIOz_KXE2ldxw_Rr-3" value="availableStreams&amp;nbsp; (score)" style="shape=partialRectangle;html=1;whiteSpace=wrap;connectable=0;fillColor=none;top=0;left=0;bottom=0;right=0;overflow=hidden;" parent="h3QrRIOz_KXE2ldxw_Rr-1" vertex="1"><mxGeometry x="180" width="180" height="27" as="geometry"/></mxCell><mxCell id="h3QrRIOz_KXE2ldxw_Rr-4" value="" style="shape=partialRectangle;html=1;whiteSpace=wrap;collapsible=0;dropTarget=0;pointerEvents=0;fillColor=none;top=0;left=0;bottom=0;right=0;points=[[0,0.5],[1,0.5]];portConstraint=eastwest;" parent="h3QrRIOz_KXE2ldxw_Rr-0" vertex="1"><mxGeometry y="57" width="360" height="33" as="geometry"/></mxCell><mxCell id="h3QrRIOz_KXE2ldxw_Rr-5" value="janus-1234" style="shape=partialRectangle;html=1;whiteSpace=wrap;connectable=0;fillColor=none;top=0;left=0;bottom=0;right=0;overflow=hidden;" parent="h3QrRIOz_KXE2ldxw_Rr-4" vertex="1"><mxGeometry width="180" height="33" as="geometry"/></mxCell><mxCell id="h3QrRIOz_KXE2ldxw_Rr-6" value="7" style="shape=partialRectangle;html=1;whiteSpace=wrap;connectable=0;fillColor=none;top=0;left=0;bottom=0;right=0;overflow=hidden;" parent="h3QrRIOz_KXE2ldxw_Rr-4" vertex="1"><mxGeometry x="180" width="180" height="33" as="geometry"/></mxCell><mxCell id="h3QrRIOz_KXE2ldxw_Rr-7" value="" style="shape=partialRectangle;html=1;whiteSpace=wrap;collapsible=0;dropTarget=0;pointerEvents=0;fillColor=none;top=0;left=0;bottom=0;right=0;points=[[0,0.5],[1,0.5]];portConstraint=eastwest;" parent="h3QrRIOz_KXE2ldxw_Rr-0" vertex="1"><mxGeometry y="90" width="360" height="27" as="geometry"/></mxCell><mxCell id="h3QrRIOz_KXE2ldxw_Rr-8" value="janus-12345" style="shape=partialRectangle;html=1;whiteSpace=wrap;connectable=0;fillColor=none;top=0;left=0;bottom=0;right=0;overflow=hidden;" parent="h3QrRIOz_KXE2ldxw_Rr-7" vertex="1"><mxGeometry width="180" height="27" as="geometry"/></mxCell><mxCell id="h3QrRIOz_KXE2ldxw_Rr-9" value="100" style="shape=partialRectangle;html=1;whiteSpace=wrap;connectable=0;fillColor=none;top=0;left=0;bottom=0;right=0;overflow=hidden;" parent="h3QrRIOz_KXE2ldxw_Rr-7" vertex="1"><mxGeometry x="180" width="180" height="27" as="geometry"/></mxCell></root></mxGraphModel></diagram><diagram id="6Dffrha3pumacId7Eyda" name="Groups"><mxGraphModel dx="1149" dy="696" grid="1" gridSize="10" guides="1" tooltips="1" connect="1" arrows="1" fold="1" page="1" pageScale="1" pageWidth="1169" pageHeight="827" math="0" shadow="0"><root><mxCell id="JaYh5lZXfy7pyK0LRUir-0"/><mxCell id="JaYh5lZXfy7pyK0LRUir-1" parent="JaYh5lZXfy7pyK0LRUir-0"/><mxCell id="1IHJFxdqRlRlgIZc2G4W-0" value="&lt;pre style=&quot;background-color: #2b2b2b ; color: #a9b7c6 ; font-family: &amp;#34;jetbrains mono&amp;#34; , monospace ; font-size: 9.8pt&quot;&gt;&lt;span style=&quot;color: #6a8759&quot;&gt;room:&lt;/span&gt;${roomId}&lt;span style=&quot;color: #6a8759&quot;&gt;:groups (HSET)&lt;/span&gt;&lt;/pre&gt;" style="shape=table;html=1;whiteSpace=wrap;startSize=30;container=1;collapsible=0;childLayout=tableLayout;fontStyle=1;align=center;" parent="JaYh5lZXfy7pyK0LRUir-1" vertex="1"><mxGeometry x="240" y="240" width="880" height="229" as="geometry"/></mxCell><mxCell id="1IHJFxdqRlRlgIZc2G4W-48" style="shape=partialRectangle;html=1;whiteSpace=wrap;collapsible=0;dropTarget=0;pointerEvents=0;fillColor=none;top=0;left=0;bottom=0;right=0;points=[[0,0.5],[1,0.5]];portConstraint=eastwest;" parent="1IHJFxdqRlRlgIZc2G4W-0" vertex="1"><mxGeometry y="30" width="880" height="33" as="geometry"/></mxCell><mxCell id="1IHJFxdqRlRlgIZc2G4W-49" value="Field" style="shape=partialRectangle;html=1;whiteSpace=wrap;connectable=0;fillColor=none;top=0;left=0;bottom=0;right=0;overflow=hidden;" parent="1IHJFxdqRlRlgIZc2G4W-48" vertex="1"><mxGeometry width="440" height="33" as="geometry"/></mxCell><mxCell id="1IHJFxdqRlRlgIZc2G4W-50" value="Value" style="shape=partialRectangle;html=1;whiteSpace=wrap;connectable=0;fillColor=none;top=0;left=0;bottom=0;right=0;overflow=hidden;" parent="1IHJFxdqRlRlgIZc2G4W-48" vertex="1"><mxGeometry x="440" width="440" height="33" as="geometry"/></mxCell><mxCell id="1IHJFxdqRlRlgIZc2G4W-1" value="" style="shape=partialRectangle;html=1;whiteSpace=wrap;collapsible=0;dropTarget=0;pointerEvents=0;fillColor=none;top=0;left=0;bottom=0;right=0;points=[[0,0.5],[1,0.5]];portConstraint=eastwest;" parent="1IHJFxdqRlRlgIZc2G4W-0" vertex="1"><mxGeometry y="63" width="880" height="32" as="geometry"/></mxCell><UserObject label="&lt;div&gt;9f89b7f8-3a1c-4e68-a2a1-6ca518ba0dbd.m&amp;nbsp; &amp;nbsp;&lt;/div&gt;" link="95cb1ee8-4c8a-4478-901f-6426f4f573b5.msId" id="1IHJFxdqRlRlgIZc2G4W-2"><mxCell style="shape=partialRectangle;html=1;whiteSpace=wrap;connectable=0;fillColor=none;top=0;left=0;bottom=0;right=0;overflow=hidden;" parent="1IHJFxdqRlRlgIZc2G4W-1" vertex="1"><mxGeometry width="440" height="32" as="geometry"/></mxCell></UserObject><mxCell id="1IHJFxdqRlRlgIZc2G4W-3" value="&lt;div&gt;{&quot;msId&quot;:&quot;abc&quot;,&quot;roomId&quot;:100,&quot;sfuRegionId&quot;:88,&quot;sessionMode&quot;:0,&quot;maxPublishers&quot;:150,&quot;maxViewers&quot;:125}&lt;/div&gt;" style="shape=partialRectangle;html=1;whiteSpace=wrap;connectable=0;fillColor=none;top=0;left=0;bottom=0;right=0;overflow=hidden;" parent="1IHJFxdqRlRlgIZc2G4W-1" vertex="1"><mxGeometry x="440" width="440" height="32" as="geometry"/></mxCell><mxCell id="1IHJFxdqRlRlgIZc2G4W-4" value="" style="shape=partialRectangle;html=1;whiteSpace=wrap;collapsible=0;dropTarget=0;pointerEvents=0;fillColor=none;top=0;left=0;bottom=0;right=0;points=[[0,0.5],[1,0.5]];portConstraint=eastwest;" parent="1IHJFxdqRlRlgIZc2G4W-0" vertex="1"><mxGeometry y="95" width="880" height="40" as="geometry"/></mxCell><UserObject label="&lt;div&gt;9f89b7f8-3a1c-4e68-a2a1-6ca518ba0dbd.pc&amp;nbsp; &amp;nbsp;&amp;nbsp;&lt;/div&gt;" link="95cb1ee8-4c8a-4478-901f-6426f4f573b5.msId" id="1IHJFxdqRlRlgIZc2G4W-5"><mxCell style="shape=partialRectangle;html=1;whiteSpace=wrap;connectable=0;fillColor=none;top=0;left=0;bottom=0;right=0;overflow=hidden;" parent="1IHJFxdqRlRlgIZc2G4W-4" vertex="1"><mxGeometry width="440" height="40" as="geometry"/></mxCell></UserObject><mxCell id="1IHJFxdqRlRlgIZc2G4W-6" value="1" style="shape=partialRectangle;html=1;whiteSpace=wrap;connectable=0;fillColor=none;top=0;left=0;bottom=0;right=0;overflow=hidden;" parent="1IHJFxdqRlRlgIZc2G4W-4" vertex="1"><mxGeometry x="440" width="440" height="40" as="geometry"/></mxCell><mxCell id="1IHJFxdqRlRlgIZc2G4W-7" value="" style="shape=partialRectangle;html=1;whiteSpace=wrap;collapsible=0;dropTarget=0;pointerEvents=0;fillColor=none;top=0;left=0;bottom=0;right=0;points=[[0,0.5],[1,0.5]];portConstraint=eastwest;" parent="1IHJFxdqRlRlgIZc2G4W-0" vertex="1"><mxGeometry y="135" width="880" height="33" as="geometry"/></mxCell><mxCell id="1IHJFxdqRlRlgIZc2G4W-8" value="&lt;div&gt;&lt;font face=&quot;helvetica&quot;&gt;be87594e-0faf-4241-b296-0435418d5ba1.m&amp;nbsp; &amp;nbsp;&lt;/font&gt;&lt;/div&gt;" style="shape=partialRectangle;html=1;whiteSpace=wrap;connectable=0;fillColor=none;top=0;left=0;bottom=0;right=0;overflow=hidden;" parent="1IHJFxdqRlRlgIZc2G4W-7" vertex="1"><mxGeometry width="440" height="33" as="geometry"/></mxCell><mxCell id="1IHJFxdqRlRlgIZc2G4W-9" value="{&quot;msId&quot;:&quot;efg&quot;,&quot;roomId&quot;:100,&quot;sfuRegionId&quot;:88,&quot;sessionMode&quot;:0,&quot;maxPublishers&quot;:150,&quot;maxViewers&quot;:125}" style="shape=partialRectangle;html=1;whiteSpace=wrap;connectable=0;fillColor=none;top=0;left=0;bottom=0;right=0;overflow=hidden;" parent="1IHJFxdqRlRlgIZc2G4W-7" vertex="1"><mxGeometry x="440" width="440" height="33" as="geometry"/></mxCell><mxCell id="1IHJFxdqRlRlgIZc2G4W-16" style="shape=partialRectangle;html=1;whiteSpace=wrap;collapsible=0;dropTarget=0;pointerEvents=0;fillColor=none;top=0;left=0;bottom=0;right=0;points=[[0,0.5],[1,0.5]];portConstraint=eastwest;" parent="1IHJFxdqRlRlgIZc2G4W-0" vertex="1"><mxGeometry y="168" width="880" height="33" as="geometry"/></mxCell><mxCell id="1IHJFxdqRlRlgIZc2G4W-17" value="&lt;div&gt;&lt;font face=&quot;helvetica&quot;&gt;be87594e-0faf-4241-b296-0435418d5ba1.pc&lt;/font&gt;&lt;/div&gt;&lt;div&gt;&lt;font face=&quot;helvetica&quot;&gt;&amp;nbsp; &amp;nbsp;&amp;nbsp;&lt;/font&gt;&lt;/div&gt;" style="shape=partialRectangle;html=1;whiteSpace=wrap;connectable=0;fillColor=none;top=0;left=0;bottom=0;right=0;overflow=hidden;" parent="1IHJFxdqRlRlgIZc2G4W-16" vertex="1"><mxGeometry width="440" height="33" as="geometry"/></mxCell><mxCell id="1IHJFxdqRlRlgIZc2G4W-18" value="5" style="shape=partialRectangle;html=1;whiteSpace=wrap;connectable=0;fillColor=none;top=0;left=0;bottom=0;right=0;overflow=hidden;" parent="1IHJFxdqRlRlgIZc2G4W-16" vertex="1"><mxGeometry x="440" width="440" height="33" as="geometry"/></mxCell><mxCell id="1IHJFxdqRlRlgIZc2G4W-10" style="shape=partialRectangle;html=1;whiteSpace=wrap;collapsible=0;dropTarget=0;pointerEvents=0;fillColor=none;top=0;left=0;bottom=0;right=0;points=[[0,0.5],[1,0.5]];portConstraint=eastwest;" parent="1IHJFxdqRlRlgIZc2G4W-0" vertex="1"><mxGeometry y="201" width="880" height="28" as="geometry"/></mxCell><mxCell id="1IHJFxdqRlRlgIZc2G4W-11" style="shape=partialRectangle;html=1;whiteSpace=wrap;connectable=0;fillColor=none;top=0;left=0;bottom=0;right=0;overflow=hidden;" parent="1IHJFxdqRlRlgIZc2G4W-10" vertex="1"><mxGeometry width="440" height="28" as="geometry"/></mxCell><mxCell id="1IHJFxdqRlRlgIZc2G4W-12" style="shape=partialRectangle;html=1;whiteSpace=wrap;connectable=0;fillColor=none;top=0;left=0;bottom=0;right=0;overflow=hidden;" parent="1IHJFxdqRlRlgIZc2G4W-10" vertex="1"><mxGeometry x="440" width="440" height="28" as="geometry"/></mxCell><mxCell id="1IHJFxdqRlRlgIZc2G4W-22" value="&lt;pre style=&quot;background-color: #2b2b2b ; color: #a9b7c6 ; font-family: &amp;#34;jetbrains mono&amp;#34; , monospace ; font-size: 9.8pt&quot;&gt;&lt;span style=&quot;color: #6a8759&quot;&gt;ms:&lt;/span&gt;${mediaServerId}&lt;span style=&quot;color: #6a8759&quot;&gt;:groups  (ZSET)  Score=RoomId&lt;/span&gt;&lt;/pre&gt;" style="shape=table;html=1;whiteSpace=wrap;startSize=30;container=1;collapsible=0;childLayout=tableLayout;fontStyle=1;align=center;" parent="JaYh5lZXfy7pyK0LRUir-1" vertex="1"><mxGeometry x="1010" y="40" width="530" height="130" as="geometry"/></mxCell><mxCell id="1IHJFxdqRlRlgIZc2G4W-44" style="shape=partialRectangle;html=1;whiteSpace=wrap;collapsible=0;dropTarget=0;pointerEvents=0;fillColor=none;top=0;left=0;bottom=0;right=0;points=[[0,0.5],[1,0.5]];portConstraint=eastwest;" parent="1IHJFxdqRlRlgIZc2G4W-22" vertex="1"><mxGeometry y="30" width="530" height="30" as="geometry"/></mxCell><mxCell id="1IHJFxdqRlRlgIZc2G4W-45" value="Memeber" style="shape=partialRectangle;html=1;whiteSpace=wrap;connectable=0;fillColor=none;top=0;left=0;bottom=0;right=0;overflow=hidden;" parent="1IHJFxdqRlRlgIZc2G4W-44" vertex="1"><mxGeometry width="265" height="30" as="geometry"/></mxCell><mxCell id="1IHJFxdqRlRlgIZc2G4W-46" value="Score" style="shape=partialRectangle;html=1;whiteSpace=wrap;connectable=0;fillColor=none;top=0;left=0;bottom=0;right=0;overflow=hidden;" parent="1IHJFxdqRlRlgIZc2G4W-44" vertex="1"><mxGeometry x="265" width="265" height="30" as="geometry"/></mxCell><mxCell id="1IHJFxdqRlRlgIZc2G4W-23" value="" style="shape=partialRectangle;html=1;whiteSpace=wrap;collapsible=0;dropTarget=0;pointerEvents=0;fillColor=none;top=0;left=0;bottom=0;right=0;points=[[0,0.5],[1,0.5]];portConstraint=eastwest;" parent="1IHJFxdqRlRlgIZc2G4W-22" vertex="1"><mxGeometry y="60" width="530" height="30" as="geometry"/></mxCell><UserObject label="&lt;meta charset=&quot;utf-8&quot;&gt;&lt;span style=&quot;color: rgb(240, 240, 240); font-family: helvetica; font-size: 12px; font-style: normal; font-weight: 400; letter-spacing: normal; text-align: center; text-indent: 0px; text-transform: none; word-spacing: 0px; background-color: rgb(42, 42, 42); display: inline; float: none;&quot;&gt;95cb1ee8-4c8a-4478-901f-6426f4f573b5&lt;/span&gt;" link="95cb1ee8-4c8a-4478-901f-6426f4f573b5.msId" id="1IHJFxdqRlRlgIZc2G4W-24"><mxCell style="shape=partialRectangle;html=1;whiteSpace=wrap;connectable=0;fillColor=none;top=0;left=0;bottom=0;right=0;overflow=hidden;" parent="1IHJFxdqRlRlgIZc2G4W-23" vertex="1"><mxGeometry width="265" height="30" as="geometry"/></mxCell></UserObject><mxCell id="1IHJFxdqRlRlgIZc2G4W-25" value="100" style="shape=partialRectangle;html=1;whiteSpace=wrap;connectable=0;fillColor=none;top=0;left=0;bottom=0;right=0;overflow=hidden;" parent="1IHJFxdqRlRlgIZc2G4W-23" vertex="1"><mxGeometry x="265" width="265" height="30" as="geometry"/></mxCell><mxCell id="1IHJFxdqRlRlgIZc2G4W-38" style="shape=partialRectangle;html=1;whiteSpace=wrap;collapsible=0;dropTarget=0;pointerEvents=0;fillColor=none;top=0;left=0;bottom=0;right=0;points=[[0,0.5],[1,0.5]];portConstraint=eastwest;" parent="1IHJFxdqRlRlgIZc2G4W-22" vertex="1"><mxGeometry y="90" width="530" height="40" as="geometry"/></mxCell><mxCell id="1IHJFxdqRlRlgIZc2G4W-39" value="&lt;span style=&quot;font-family: &amp;#34;helvetica&amp;#34;&quot;&gt;be87594e-0faf-4241-b296-0435418d5ba1&lt;/span&gt;" style="shape=partialRectangle;html=1;whiteSpace=wrap;connectable=0;fillColor=none;top=0;left=0;bottom=0;right=0;overflow=hidden;" parent="1IHJFxdqRlRlgIZc2G4W-38" vertex="1"><mxGeometry width="265" height="40" as="geometry"/></mxCell><mxCell id="1IHJFxdqRlRlgIZc2G4W-40" value="100" style="shape=partialRectangle;html=1;whiteSpace=wrap;connectable=0;fillColor=none;top=0;left=0;bottom=0;right=0;overflow=hidden;" parent="1IHJFxdqRlRlgIZc2G4W-38" vertex="1"><mxGeometry x="265" width="265" height="40" as="geometry"/></mxCell><mxCell id="QS2jnBJ64wJSAsah2CNG-0" value="&lt;pre style=&quot;background-color: #2b2b2b ; color: #a9b7c6 ; font-family: &amp;#34;jetbrains mono&amp;#34; , monospace ; font-size: 9.8pt&quot;&gt;&lt;span style=&quot;color: #6a8759&quot;&gt;room:&lt;/span&gt;${roomId}&lt;span style=&quot;color: #6a8759&quot;&gt;:&lt;/span&gt; groupsByCapacity&lt;span style=&quot;color: #6a8759&quot;&gt; (ZSET) Score=#of publishers&lt;/span&gt;&lt;/pre&gt;" style="shape=table;html=1;whiteSpace=wrap;startSize=30;container=1;collapsible=0;childLayout=tableLayout;fontStyle=1;align=center;" parent="JaYh5lZXfy7pyK0LRUir-1" vertex="1"><mxGeometry x="10" y="680" width="490" height="135" as="geometry"/></mxCell><mxCell id="QS2jnBJ64wJSAsah2CNG-1" style="shape=partialRectangle;html=1;whiteSpace=wrap;collapsible=0;dropTarget=0;pointerEvents=0;fillColor=none;top=0;left=0;bottom=0;right=0;points=[[0,0.5],[1,0.5]];portConstraint=eastwest;" parent="QS2jnBJ64wJSAsah2CNG-0" vertex="1"><mxGeometry y="30" width="490" height="35" as="geometry"/></mxCell><mxCell id="QS2jnBJ64wJSAsah2CNG-2" value="Memeber" style="shape=partialRectangle;html=1;whiteSpace=wrap;connectable=0;fillColor=none;top=0;left=0;bottom=0;right=0;overflow=hidden;" parent="QS2jnBJ64wJSAsah2CNG-1" vertex="1"><mxGeometry width="245" height="35" as="geometry"/></mxCell><mxCell id="QS2jnBJ64wJSAsah2CNG-3" value="Score" style="shape=partialRectangle;html=1;whiteSpace=wrap;connectable=0;fillColor=none;top=0;left=0;bottom=0;right=0;overflow=hidden;" parent="QS2jnBJ64wJSAsah2CNG-1" vertex="1"><mxGeometry x="245" width="245" height="35" as="geometry"/></mxCell><mxCell id="QS2jnBJ64wJSAsah2CNG-4" value="" style="shape=partialRectangle;html=1;whiteSpace=wrap;collapsible=0;dropTarget=0;pointerEvents=0;fillColor=none;top=0;left=0;bottom=0;right=0;points=[[0,0.5],[1,0.5]];portConstraint=eastwest;" parent="QS2jnBJ64wJSAsah2CNG-0" vertex="1"><mxGeometry y="65" width="490" height="35" as="geometry"/></mxCell><UserObject label="9f89b7f8-3a1c-4e68-a2a1-6ca518ba0dbd" link="95cb1ee8-4c8a-4478-901f-6426f4f573b5.msId" id="QS2jnBJ64wJSAsah2CNG-5"><mxCell style="shape=partialRectangle;html=1;whiteSpace=wrap;connectable=0;fillColor=none;top=0;left=0;bottom=0;right=0;overflow=hidden;" parent="QS2jnBJ64wJSAsah2CNG-4" vertex="1"><mxGeometry width="245" height="35" as="geometry"/></mxCell></UserObject><mxCell id="QS2jnBJ64wJSAsah2CNG-6" value="1" style="shape=partialRectangle;html=1;whiteSpace=wrap;connectable=0;fillColor=none;top=0;left=0;bottom=0;right=0;overflow=hidden;" parent="QS2jnBJ64wJSAsah2CNG-4" vertex="1"><mxGeometry x="245" width="245" height="35" as="geometry"/></mxCell><mxCell id="vvNdLYnmYwDwLbU2BRem-0" style="shape=partialRectangle;html=1;whiteSpace=wrap;collapsible=0;dropTarget=0;pointerEvents=0;fillColor=none;top=0;left=0;bottom=0;right=0;points=[[0,0.5],[1,0.5]];portConstraint=eastwest;" parent="QS2jnBJ64wJSAsah2CNG-0" vertex="1"><mxGeometry y="100" width="490" height="35" as="geometry"/></mxCell><mxCell id="vvNdLYnmYwDwLbU2BRem-1" value="&lt;span style=&quot;font-family: &amp;#34;helvetica&amp;#34;&quot;&gt;be87594e-0faf-4241-b296-0435418d5ba1&lt;/span&gt;" style="shape=partialRectangle;html=1;whiteSpace=wrap;connectable=0;fillColor=none;top=0;left=0;bottom=0;right=0;overflow=hidden;" parent="vvNdLYnmYwDwLbU2BRem-0" vertex="1"><mxGeometry width="245" height="35" as="geometry"/></mxCell><mxCell id="vvNdLYnmYwDwLbU2BRem-2" value="5" style="shape=partialRectangle;html=1;whiteSpace=wrap;connectable=0;fillColor=none;top=0;left=0;bottom=0;right=0;overflow=hidden;" parent="vvNdLYnmYwDwLbU2BRem-0" vertex="1"><mxGeometry x="245" width="245" height="35" as="geometry"/></mxCell><mxCell id="QS2jnBJ64wJSAsah2CNG-22" value="" style="curved=1;endArrow=classic;html=1;exitX=1;exitY=0.5;exitDx=0;exitDy=0;entryX=-0.005;entryY=-0.093;entryDx=0;entryDy=0;entryPerimeter=0;" parent="JaYh5lZXfy7pyK0LRUir-1" source="QS2jnBJ64wJSAsah2CNG-4" target="1IHJFxdqRlRlgIZc2G4W-4" edge="1"><mxGeometry width="50" height="50" relative="1" as="geometry"><mxPoint x="530" y="590" as="sourcePoint"/><mxPoint x="470" y="310" as="targetPoint"/><Array as="points"><mxPoint x="790" y="590"/><mxPoint x="90" y="570"/><mxPoint x="160" y="350"/></Array></mxGeometry></mxCell><mxCell id="vvNdLYnmYwDwLbU2BRem-3" value="" style="curved=1;endArrow=classic;html=1;exitX=1;exitY=0.5;exitDx=0;exitDy=0;fillColor=#d80073;strokeColor=#A50040;" parent="JaYh5lZXfy7pyK0LRUir-1" edge="1"><mxGeometry width="50" height="50" relative="1" as="geometry"><mxPoint x="509.9999999999998" y="807.5" as="sourcePoint"/><mxPoint x="230" y="390" as="targetPoint"/><Array as="points"><mxPoint x="800" y="600"/><mxPoint x="150" y="500"/></Array></mxGeometry></mxCell><mxCell id="vvNdLYnmYwDwLbU2BRem-6" value="" style="curved=1;endArrow=classic;html=1;entryX=1;entryY=0.5;entryDx=0;entryDy=0;" parent="JaYh5lZXfy7pyK0LRUir-1" target="1IHJFxdqRlRlgIZc2G4W-23" edge="1"><mxGeometry width="50" height="50" relative="1" as="geometry"><mxPoint x="1130" y="320" as="sourcePoint"/><mxPoint x="1000" y="120" as="targetPoint"/><Array as="points"><mxPoint x="1530" y="280"/><mxPoint x="1650" y="200"/></Array></mxGeometry></mxCell><mxCell id="vvNdLYnmYwDwLbU2BRem-7" value="" style="curved=1;endArrow=block;html=1;fillColor=#d80073;strokeColor=#A50040;entryX=1;entryY=0.5;entryDx=0;entryDy=0;exitX=1;exitY=0.5;exitDx=0;exitDy=0;endFill=1;" parent="JaYh5lZXfy7pyK0LRUir-1" source="1IHJFxdqRlRlgIZc2G4W-7" target="1IHJFxdqRlRlgIZc2G4W-38" edge="1"><mxGeometry width="50" height="50" relative="1" as="geometry"><mxPoint x="1490" y="280" as="sourcePoint"/><mxPoint x="1540" y="230" as="targetPoint"/><Array as="points"><mxPoint x="1430" y="370"/><mxPoint x="1650" y="280"/></Array></mxGeometry></mxCell></root></mxGraphModel></diagram></mxfile>